<?xml version="1.0" encoding="utf-8"?>
<?xml-stylesheet type="text/xsl" href="rss1.xsl"?>
<rss version="2.0" xmlns:atom="http://www.w3.org/2005/Atom" xmlns:content="http://purl.org/rss/1.0/modules/content/" xmlns:dc="http://purl.org/dc/elements/1.1/" xmlns:media="http://search.yahoo.com/mrss/">
<channel>
 <title>Getty</title>
 <link>http://www.gettyimg.com/</link>
 <atom:link href="http://www.gettyimg.com/" rel="self" type="application/rss+xml" />

 
                <item>
                <title><![CDATA[【Cinema Center】SERIES - Redakai: Conquer the Kairu - Season 1-2 - 1080p Amazon WEB-DL DDP2.0 H.264-LAZY]]></title>
                <link><![CDATA[https://sharemania.us/threads/redakai-conquer-the-kairu-season-1-2-1080p-amazon-web-dl-ddp2-0-h-264-lazy.246178/]]></link>
                <description><![CDATA[<article>
<blockquote class="messageText SelectQuoteContainer ugc baseHtml">
Redakai: Conquer the Kairu:<img src="https://artworks.thetvdb.com/banners/v4/series/251451/banners/665ef99898c87.jpg" class="bbCodeImage LbImage" alt="[​IMG]" data-url="https://artworks.thetvdb.com/banners/v4/series/251451/banners/665ef99898c87.jpg" style=""> <br>
<br>
<div class="bbCodeBlock bbCodeQuote">
<aside>
<blockquote class="quoteContainer"><div class="quote"><i><b>Synopsis:</b></i><br>
A 15 year old student of ancient martial arts, named Ky, who embarks on an epic quest to find the Kairu, a primordial alien energy source. Aided by his friends Maya and Boomer, Ky travels the world searching for the Kairu, while attempting to make sure that his extraterrestrial teenage alien adversaries don’t find it first.</div><div class="quoteExpand">Click to expand...</div></blockquote>
</aside>
</div>
<div class="ToggleTriggerAnchor bbCodeSpoilerContainer">
<button type="button" class="button bbCodeSpoilerButton ToggleTrigger Tooltip JsOnly" data-target="> .SpoilerTarget"><span>Spoiler: <span class="SpoilerTitle">MediaInfo</span></span></button>
<div class="SpoilerTarget bbCodeSpoilerText">General<br>
Unique ID : 329280611774529148384181572582952094282 (0xF7B923979E72B7D43BA79AF3074F4A4A)<br>
Complete name : Redakai.Conquer.the.Kairu.S01E01.The.Kairu.That.Time.Forgot.1080p.AMZN.WEB-DL.DDP2.0.H.264-LAZY.mkv<br>
Format : Matroska<br>
Format version : Version 4<br>
File size : 1.18 GiB<br>
Duration : 21 min 46 s<br>
Overall bit rate : 7 749 kb/s<br>
Encoded date : UTC 2024-06-03 18:40:53<br>
Writing application : mkvmerge v84.0 ('Sleeper') 64-bit<br>
Writing library : libebml v1.4.5 + libmatroska v1.7.1<br>
<br>
Video<br>
ID : 1<br>
Format : AVC<br>
Format/Info : Advanced Video Codec<br>
Format profile : High@L4<br>
Format settings : CABAC / 4 Ref Frames<br>
Format settings, CABAC : Yes<br>
Format settings, Reference frames : 4 frames<br>
Codec ID : V_MPEG4/ISO/AVC<br>
Duration : 21 min 46 s<br>
Bit rate mode : Constant<br>
Bit rate : 7 523 kb/s<br>
Nominal bit rate : 10 000 kb/s<br>
Width : 1 920 pixels<br>
Height : 1 080 pixels<br>
Display aspect ratio : 16:9<br>
Frame rate mode : Constant<br>
Frame rate : 29.970 (30000/1001) FPS<br>
Color space : YUV<br>
Chroma subsampling : 4:2:0<br>
Bit depth : 8 bits<br>
Scan type : Progressive<br>
Bits/(Pixel*Frame) : 0.121<br>
Stream size : 1.14 GiB (97%)<br>
Default : Yes<br>
Forced : No<br>
Color range : Limited<br>
Color primaries : BT.709<br>
Transfer characteristics : BT.709<br>
Matrix coefficients : BT.709<br>
<br>
Audio<br>
ID : 2<br>
Format : E-AC-3<br>
Format/Info : Enhanced AC-3<br>
Commercial name : Dolby Digital Plus<br>
Codec ID : A_EAC3<br>
Duration : 21 min 46 s<br>
Bit rate mode : Constant<br>
Bit rate : 224 kb/s<br>
Channel(s) : 2 channels<br>
Channel layout : L R<br>
Sampling rate : 48.0 kHz<br>
Frame rate : 31.250 FPS (1536 SPF)<br>
Compression mode : Lossy<br>
Stream size : 34.9 MiB (3%)<br>
Language : English<br>
Service kind : Complete Main<br>
Default : Yes<br>
Forced : No<br>
<br>
Text<br>
ID : 3<br>
Format : UTF-8<br>
Codec ID : S_TEXT/UTF8<br>
Codec ID/Info : UTF-8 Plain Text<br>
Duration : 21 min 11 s<br>
Bit rate : 63 b/s<br>
Count of elements : 398<br>
Stream size : 9.87 KiB (0%)<br>
Title : Canadian (SDH)<br>
Language : English<br>
Default : No<br>
Forced : No</div>
</div><br>
Screenshots:<br>
<img src="https://ptpimg.me/a76756.jpg" class="bbCodeImage LbImage" alt="[​IMG]" data-url="https://ptpimg.me/a76756.jpg" style=""> <br>
<br>
<div class="bbCodeBlock bbCodeVfcHH HiddenContent">
<div class="attribution type">Hidden Content:</div>
<blockquote>You must either reply or click 'Like' to see the hidden information contained here.</blockquote>
</div>
<div class="messageTextEndMarker">&nbsp;</div>
</blockquote>
</article>]]></description>
                <author><![CDATA[LazyRips]]></author>
                </item>

                
                <item>
                <title><![CDATA[【Requests】[REQ AUD] - Hanoi Rocks - 11th Street Kids &amp; Boys Like Girls Album]]></title>
                <link><![CDATA[https://sharemania.us/threads/hanoi-rocks-11th-street-kids-boys-like-girls-album.246176/]]></link>
                <description><![CDATA[<article>
<blockquote class="messageText SelectQuoteContainer ugc baseHtml">
<a href="https://www.qobuz.com/us-en/album/bangkok-shocks-saigon-shakes-hanoi-rocks-hanoi-rocks/0075992426527" target="_blank" class="externalLink" rel="nofollow">https://www.qobuz.com/us-en/album/bangkok-shocks-saigon-shakes-hanoi-rocks-hanoi-rocks/0075992426527</a><br>
<br>
I only need the track "11th Street Kids" from this.<br>
<br>
<a href="https://www.qobuz.com/au-en/album/sunday-at-foxwoods-boys-like-girls/uj48d63ryujtb" target="_blank" class="externalLink" rel="nofollow">https://www.qobuz.com/au-en/album/sunday-at-foxwoods-boys-like-girls/uj48d63ryujtb</a><br>
<br>
And from this album, I need the whole album.<br>
<br>
Many thanks, brothers and sisters
<div class="messageTextEndMarker">&nbsp;</div>
</blockquote>
</article>]]></description>
                <author><![CDATA[encad009]]></author>
                </item>

                </channel></rss>